<svg width="30" height="30" viewBox="0 0 1024 1024" class="icon" xmlns="http://www.w3.org/2000/svg">
  <path d="M707.004 461.38h56.314v28.669h-56.314zm0 63.481h56.314v28.669h-56.314zm0 62.457h56.314v27.645h-56.314zM847.276 714.28h55.29v27.645h-55.29zm0-63.481h55.29v28.669h-55.29zM440.794 265.818h28.669v-34.812h48.122v167.917H489.94v27.645H573.9v-27.645h-27.645V231.006h50.17v34.812h27.645v-63.48H440.794z" fill="#FFB612"/>
  <path d="M623.124 579.46c-2.798-6.717-7.539-13.938-14.256-16.738-3.289-1.469-6.35-4.073-10.198-4.073H192.852c-3.848 0-7.556 2.604-10.845 4.073-6.717 2.799-14.412 9.104-17.21 15.82-1.47 3.289-4.548 7.914-4.548 11.762v202.908c0 3.848 3.077 7.556 4.547 10.845 2.799 6.717 9.34 10.863 16.058 13.662 3.289 1.47 8.151.997 11.999.997H598.67c3.848 0 7.556.472 10.845-.997 6.717-2.8 10.811-7.566 13.61-14.282 1.469-3.289.944-6.376.944-10.225V590.305c0-3.85.525-7.558-.945-10.845zM395.761 726.744c-19.311 0-34.984-15.673-34.984-34.985s15.673-34.984 34.984-34.984c19.312 0 34.984 15.673 34.984 34.984s-15.673 34.985-34.984 34.985zM892.537 461.38h-30.926v153.583h30.926c7.697 0 10.03-2.97 10.03-10.665V478.355c0-7.696-2.333-16.975-10.03-16.975zM752.601 650.8h-31.262v91.126h31.262c7.696 0 10.718-3.987 10.718-11.684V667.27c-.001-7.695-3.023-16.47-10.718-16.47z" fill="#E0E0E0"/>
  <path d="M899.534 342.61H721.338V177.49c0-38.552-28.141-72.42-66.693-72.42H136.877c-38.552 0-73.897 33.868-73.897 72.42v671.698c0 38.552 35.345 66.797 73.897 66.797h643.71c41.562 0 76.127-27.645 82.774-68.6h36.173c34.705 0 59.346-26.464 59.346-61.17v-377.83c0-34.703-24.641-65.776-59.346-65.776zM91.65 177.49c0-23.159 22.069-43.752 45.228-43.752h67.4v71.74c0 23.16-16.253 38.84-39.412 38.84H91.649V177.49zm45.228 710.85c-23.16 0-45.228-15.993-45.228-39.152V272.985h73.216c38.552 0 66.032-28.955 66.032-67.508v-71.74h423.748c23.159 0 39.049 20.593 39.049 43.752v657.704c0 21.48 11.047 39.837 24.341 53.147H136.877zm696.065-479.954v426.807c0 30.856-24.946 55.975-55.802 55.975s-55.802-25.119-55.802-55.975V370.254h125.86c-6.717 15.359-14.256 25.188-14.256 38.132zm97.27 377.83c0 19.311-11.366 32.5-30.678 32.5h-37.923v-410.33c0-19.312 14.988-34.984 34.3-34.984s34.3 15.672 34.3 34.984v377.83z" fill="#262626"/>
  <path d="M287.211 210.528H413.15v26.621H287.211zm0 62.457H413.15v27.645H287.211zM160.25 336.466h252.9v26.621h-252.9zm0 62.457h252.9v27.645h-252.9zm0 62.457h463.82v28.669H160.25zm28.67 286.688h-28.67v45.145c0 15.435 17.17 25.503 32.603 25.503h38.045v-27.645h-41.979v-43.003zm407.505 43.003h-44.027v27.645h46.273c15.435 0 25.4-10.068 25.4-25.503v-45.145h-27.646v43.003zm2.246-232.422h-46.273v28.669h44.027v43.003h27.645v-40.017c0-15.435-9.964-31.655-25.4-31.655zm-438.42 31.656v40.017h28.668V587.32h41.98V558.65h-38.046c-15.432 0-32.603 16.219-32.603 31.655zm235.511 38.482c-34.704 0-62.972 28.268-62.972 62.972 0 34.705 28.268 62.972 62.972 62.972s62.972-28.267 62.972-62.972-28.267-62.972-62.972-62.972zm0 97.957c-19.311 0-34.984-15.673-34.984-34.985s15.673-34.984 34.984-34.984c19.312 0 34.984 15.673 34.984 34.984s-15.673 34.985-34.984 34.985zM175.608 198.48v-37.098h-31.734c-11.575 0-24.58 11.53-24.58 23.105v32.185h38.574c11.575-.001 17.74-6.618 17.74-18.192z" fill="#262626"/>
</svg>